#!OML:ASF H:\Pregnant\Project 1\Capture day 1\Session 1\femalepreg.ASF
:FULLY-SPECIFIED
:DEGREES
755
root 19.6985 15.2793 7.66478 -342.099 -0.600355 1.50176
lowerback -13.0982 -1.34318 -2.40447
upperback -3.70685 -1.46152 -0.126743
thorax 3.49927 -0.73421 0.991976
lowerneck -17.7553 -3.35768 0.627679
upperneck 25.6984 -4.65083 -1.19938
head 11.2296 -2.20432 -1.22923
rclavicle -9.5603e-015 -2.38542e-015
rhumerus -53.5904 -5.84209 -70.885
rradius 18.3741
rwrist -0.560801
rhand -15.6211 -19.9824
rfingers 7.12502
rthumb 10.5657 -49.6968
lclavicle -9.5603e-015 -2.38542e-015
lhumerus -27.9256 -21.9442 87.8415
lradius 78.7824
lwrist 36.271
lhand -24.4939 -14.4224
lfingers 7.12502
lthumb 2.00033 15.5479
rfemur -52.8867 10.1226 15.2412
rtibia 35.7905
rfoot 2.80314 -13.8902
rtoes -12.9876
lfemur -21.8793 -10.5437 -23.4137
ltibia 39.809
lfoot -14.5909 -10.1763
ltoes -28.6358
756
root 19.6915 15.2621 7.78743 -342.445 -0.763458 1.36551
lowerback -12.8676 -1.07313 -1.64446
upperback -3.69844 -1.21305 -0.00738642
thorax 3.36196 -0.607681 0.731627
lowerneck -17.6527 -3.39824 0.567738
upperneck 25.7283 -4.59574 -1.52751
head 11.213 -2.22719 -1.32837
rclavicle 4.24203e-015 -7.57867e-016
rhumerus -52.8989 -6.59603 -70.4366
rradius 17.5197
rwrist 0.793425
rhand -15.9604 -20.3307
rfingers 7.12502
rthumb 10.2384 -50.0616
lclavicle 4.24203e-015 -7.57867e-016
lhumerus -29.1852 -22.2864 88.2856
lradius 78.3198
lwrist 35.6916
lhand -24.1169 -14.4541
lfingers 7.12502
lthumb 2.36448 15.5126
rfemur -52.6488 10.0716 15.8327
rtibia 36.8045
rfoot 2.41828 -13.2048
rtoes -11.98
lfemur -22.4607 -9.89197 -23.4355
ltibia 42.1505
lfoot -13.3556 -10.9315
ltoes -28.8639
757
root 19.6857 15.2442 7.90802 -342.828 -1.04337 1.06249
lowerback -12.5793 -0.756813 -0.726807
upperback -3.65845 -0.919892 0.132492
thorax 3.22813 -0.459465 0.408913
lowerneck -17.5969 -3.4223 0.563829
upperneck 25.7303 -4.53986 -1.83671
head 11.1944 -2.24183 -1.43037
rclavicle -8.49804e-015 6.95746e-016
rhumerus -52.0902 -7.39471 -69.997
rradius 16.7067
rwrist 2.37635
rhand -16.0839 -20.6893
rfingers 7.12502
rthumb 10.1192 -50.4259
lclavicle -8.49804e-015 6.95746e-016
lhumerus -30.438 -22.5376 88.7133
lradius 77.6415
lwrist 35.0646
lhand -23.822 -14.4446
lfingers 7.12502
lthumb 2.64922 15.5187
rfemur -52.2881 10.2675 16.4991
rtibia 37.6973
rfoot 1.87174 -12.7756
rtoes -11.2595
lfemur -23.169 -9.07436 -23.2967
ltibia 44.7467
lfoot -11.9348 -11.7142
ltoes -28.8211
758
root 19.6721 15.2192 7.9751 -343.579 0.555331 1.17961
lowerback -11.15 -1.1533 -0.0764838
upperback -3.684 -1.53292 0.310593
thorax 2.41764 -0.763109 0.165686
lowerneck -17.5407 -3.42261 0.6157
upperneck 25.6946 -4.47053 -2.13452
head 11.1608 -2.2438 -1.53465
rclavicle 2.64632e-015 -4.77083e-015
rhumerus -51.1811 -8.18465 -69.5796
rradius 15.9796
rwrist 4.19491
rhand -15.9884 -20.9932
rfingers 7.12502
rthumb 10.2114 -50.7254
lclavicle 2.64632e-015 -4.77083e-015
lhumerus -31.7066 -22.6612 89.1347
lradius 76.7421
lwrist 34.3974
lhand -23.6299 -14.3988
lfingers 7.12502
lthumb 2.83477 15.5621
rfemur -51.3287 9.43375 16.8515
rtibia 38.563
rfoot 1.2505 -13.4976
rtoes -10.6398
lfemur -24.1795 -9.64779 -22.9932
ltibia 47.5527
lfoot -9.69181 -13.1502
ltoes -27.8487
759
root 19.6671 15.2072 8.08885 -343.662 0.161606 0.677363
lowerback -11.1302 -0.85538 0.96275
upperback -3.7052 -1.25638 0.511667
thorax 2.36551 -0.627068 -0.173986
lowerneck -17.5105 -3.39786 0.719155
upperneck 25.6301 -4.38367 -2.42518
head 11.121 -2.23201 -1.64231
rclavicle -1.58779e-014 1.17283e-014
rhumerus -50.161 -8.91876 -69.2335
rradius 15.3943
rwrist 6.17215
rhand -15.7154 -21.196
rfingers 7.12502
rthumb 10.4747 -50.915
lclavicle -1.58779e-014 1.17283e-014
lhumerus -32.9722 -22.641 89.5441
lradius 75.6357
lwrist 33.7042
lhand -23.5297 -14.3003
lfingers 7.12502
lthumb 2.93156 15.6593
rfemur -51.1427 9.81343 17.5774
rtibia 39.1245
rfoot 0.781091 -13.3631
rtoes -10.9029
lfemur -25.4927 -8.75138 -22.5552
ltibia 50.342
lfoot -7.64763 -13.8618
ltoes -26.6614
